<svg xmlns="http://www.w3.org/2000/svg" width="800" height="1000" viewBox="0 0 800 1000" fill="none">
  <rect width="800" height="1000" fill="#E8E6E1"/>
  <rect x="220" y="80" width="360" height="780" rx="36" fill="#FFFFFF" stroke="#D1D5DB" stroke-width="2"/>
  <rect x="248" y="140" width="304" height="48" rx="12" fill="#F3F4F6"/>
  <rect x="268" y="212" width="88" height="88" rx="20" fill="#6B4F3A"/>
  <rect x="372" y="212" width="160" height="20" rx="6" fill="#E5E7EB"/>
  <rect x="372" y="244" width="120" height="16" rx="6" fill="#E5E7EB"/>
  <rect x="268" y="324" width="264" height="72" rx="14" fill="#FFFFFF" stroke="#E5E7EB"/>
  <rect x="268" y="412" width="264" height="72" rx="14" fill="#FFFFFF" stroke="#E5E7EB"/>
  <rect x="268" y="500" width="264" height="72" rx="14" fill="#FFFFFF" stroke="#E5E7EB"/>
  <rect x="268" y="600" width="264" height="160" rx="18" fill="#F8F4EF" stroke="#D6C2B0"/>
  <rect x="288" y="620" width="120" height="12" rx="4" fill="#E5E7EB"/>
  <rect x="288" y="644" width="224" height="10" rx="4" fill="#E5E7EB"/>
  <rect x="288" y="666" width="180" height="10" rx="4" fill="#E5E7EB"/>
  <circle cx="400" cy="900" r="6" fill="#D1D5DB"/>
</svg>
